<svg width="427" height="138" viewBox="0 0 427 138" fill="none" xmlns="http://www.w3.org/2000/svg">
<path d="M73.1285 0.289315C67.2164 -0.924819 61.0666 1.92134 57.9538 7.3087C57.2188 8.58496 56.6893 9.95721 56.3542 11.369C54.9816 5.87433 50.6637 1.41874 45.1786 0.289315C39.2665 -0.924819 33.1113 1.92134 29.9985 7.3087C29.2636 8.58496 28.734 9.95721 28.3989 11.369C27.0209 5.87998 22.7084 1.41874 17.2233 0.289315C11.3112 -0.924819 5.15596 1.92134 2.04321 7.3087C-1.08034 12.7187 -0.583168 19.8115 3.26454 24.6849C7.10683 29.5528 13.6187 31.4446 19.3092 29.3043C23.8433 27.5989 27.2262 23.5668 28.4043 18.8006C28.9123 20.9239 29.8472 22.9456 31.2198 24.6849C35.0621 29.5528 41.574 31.4446 47.2645 29.3043C51.7986 27.5989 55.1815 23.5668 56.3596 18.8006C56.8676 20.9239 57.8025 22.9456 59.1751 24.6849C63.0174 29.5528 69.5293 31.4446 75.2198 29.3043C80.8887 27.1697 84.7742 21.3927 84.7742 15.0961C84.7688 7.98636 79.8133 1.66722 73.1285 0.289315Z" fill="#FDAF27"/>
<path d="M27.0027 73.5929C28.4727 80.1605 32.2177 86.2877 38.7728 88.1625C44.9983 89.9414 51.9372 87.0557 55.1418 81.1657C57.0656 77.6306 56.8224 73.6324 56.8062 69.719C56.7954 67.0818 56.7792 64.4502 56.7846 61.813C56.7846 58.9104 56.7846 56.0077 56.8008 53.1108C56.817 49.395 56.7144 45.7864 58.4869 42.4151C60.9349 37.7506 65.804 34.8818 70.8893 35.0908C76.0231 35.3054 80.7031 38.671 82.7458 43.601C84.1022 46.8763 83.8699 50.4284 83.8807 53.9127C83.8915 56.7871 83.8915 59.6671 83.8915 62.5415C83.8915 68.7533 84.2643 75.2306 83.1079 81.3464C80.4329 95.5038 71.046 107.826 58.3248 113.501C45.6036 119.177 30.537 117.657 19.0696 109.582C13.4169 105.601 8.75859 100.095 5.68907 93.7306C2.65738 87.434 0.819997 79.5676 1.98187 72.52C2.85193 67.2681 6.82393 62.9763 11.8227 61.9033C17.016 60.7909 22.4525 63.2982 25.16 68.0587C26.1435 69.7811 26.5704 71.6559 27.0027 73.5929Z" fill="#FDAF27"/>
<path d="M426.999 72.6228C426.999 91.857 411.916 107.212 392.872 107.212C373.958 107.212 359.13 91.9869 359.13 72.6228C359.13 53.2588 373.958 38.1641 392.997 38.1641C411.922 38.1641 426.999 53.3887 426.999 72.6228ZM376.644 72.7527C376.644 83.1717 383.545 90.6485 393.002 90.6485C402.335 90.6485 409.36 83.0361 409.36 72.7527C409.36 62.3338 402.33 54.5916 393.002 54.5916C383.545 54.5916 376.644 62.2039 376.644 72.7527Z" fill="black"/>
<path d="M154.012 85.6199C157.222 87.5456 160.308 89.5165 164.156 89.2793C167.841 89.0534 171.208 87.0374 173.305 83.8693C175.256 80.9272 175.212 77.5671 175.212 74.1619C175.212 68.4131 175.212 29.0469 175.212 26.1838C175.212 24.2017 175.11 22.2421 175.839 20.3503C178.006 14.7427 185.026 12.9357 189.436 16.8604C191.797 18.9612 192.468 21.8468 192.468 24.9245C192.468 31.1194 192.64 74.0038 192.424 78.2561C192.035 85.9305 188.696 93.3622 183.448 98.7213C178.012 104.278 170.559 107.333 162.978 107.328C155.698 107.322 148.008 104.402 143.242 98.4615C141.329 96.0728 140.216 93.2492 140.967 90.1207C141.691 87.1051 144.02 84.6938 146.922 83.9823C149.559 83.3498 151.775 84.2759 154.012 85.6199Z" fill="black"/>
<path d="M273.573 91.1626L273.584 91.157C270.936 89.4798 269.299 86.4981 269.25 83.2623V47.1828C269.25 42.202 265.386 38.1699 260.62 38.1699C256.253 38.1699 252.66 41.5582 252.081 45.9573C247.726 41.05 241.133 38.1699 233.221 38.1699C215.458 38.1699 202.548 52.7282 202.548 72.7586C202.548 92.7947 215.458 107.347 233.221 107.347C233.302 107.347 233.383 107.342 233.464 107.342C233.546 107.342 233.627 107.347 233.708 107.347C242.23 107.347 249.623 103.993 255.016 98.295C257.772 102.773 262.219 106.054 267.537 107.059C268.056 107.155 268.575 107.206 269.083 107.206C269.115 107.206 269.147 107.201 269.174 107.195C269.212 107.195 269.256 107.201 269.293 107.201C273.865 107.201 277.567 103.332 277.567 98.5547C277.572 95.4149 275.967 92.6761 273.573 91.1626ZM236.42 90.9198C226.834 90.9198 220.062 83.3075 220.062 72.7586C220.062 62.2041 226.963 54.4619 236.42 54.4619C245.878 54.4619 252.395 61.9387 252.395 72.7586C252.395 83.5729 246.002 90.9198 236.42 90.9198Z" fill="black"/>
<path d="M349.722 47.2447C349.722 42.038 346.144 38.1641 341.286 38.1641C336.812 38.1641 333.234 41.637 332.85 46.4428C328.506 41.2361 321.729 38.1641 313.552 38.1641C295.789 38.1641 282.879 52.7224 282.879 72.7528C282.879 92.7832 295.789 107.341 313.552 107.341C321.529 107.341 328.122 104.456 332.467 99.3395V101.485C332.407 112.266 326.003 119.494 316.492 119.494C312.418 119.494 308.754 118.139 305.9 115.581C304.836 114.626 303.895 113.508 303.101 112.26C300.464 108.115 295.108 106.991 291.142 109.747C287.175 112.503 286.1 118.099 288.737 122.244C290.407 124.865 292.401 127.225 294.665 129.258C300.691 134.668 308.24 137.525 316.498 137.525C335.536 137.525 349.403 122.64 349.711 102.033L349.727 98.131C349.727 98.131 349.727 98.131 349.727 98.1253V47.2447H349.722ZM316.752 90.9196C307.165 90.9196 300.394 83.3073 300.394 72.7584C300.394 62.2096 307.295 54.4617 316.752 54.4617C326.209 54.4617 332.726 61.9385 332.726 72.7584C332.726 83.5727 326.333 90.9196 316.752 90.9196Z" fill="black"/>
</svg>
