<svg width="104" height="28" viewBox="0 0 104 28" fill="none" xmlns="http://www.w3.org/2000/svg">
<mask id="path-1-outside-1_19_340" maskUnits="userSpaceOnUse" x="0" y="8" width="100" height="14" fill="black">
<rect fill="white" y="8" width="100" height="14"/>
<path d="M5.076 21.306C4.416 21.306 3.768 21.216 3.132 21.036C2.496 20.856 1.974 20.598 1.566 20.262C1.17 19.926 0.972 19.542 0.972 19.11V17.184H1.296C1.5 18.384 1.896 19.254 2.484 19.794C3.072 20.322 3.882 20.586 4.914 20.586C5.562 20.586 6.114 20.424 6.57 20.1C7.038 19.776 7.272 19.326 7.272 18.75C7.272 18.246 7.116 17.808 6.804 17.436C6.492 17.064 5.988 16.674 5.292 16.266L3.078 14.952C2.31 14.496 1.764 14.034 1.44 13.566C1.128 13.098 0.972 12.528 0.972 11.856C0.972 10.932 1.29 10.194 1.926 9.642C2.574 9.078 3.42 8.796 4.464 8.796C5.076 8.796 5.682 8.886 6.282 9.066C6.882 9.234 7.374 9.486 7.758 9.822C8.154 10.146 8.352 10.524 8.352 10.956V12.882H8.028C7.824 11.682 7.434 10.824 6.858 10.308C6.294 9.78 5.496 9.516 4.464 9.516C3.912 9.516 3.426 9.684 3.006 10.02C2.586 10.356 2.376 10.794 2.376 11.334C2.376 11.826 2.526 12.234 2.826 12.558C3.138 12.882 3.654 13.26 4.374 13.692L6.588 15.006C7.404 15.498 7.98 15.954 8.316 16.374C8.652 16.794 8.82 17.328 8.82 17.976C8.82 18.984 8.484 19.794 7.812 20.406C7.14 21.006 6.228 21.306 5.076 21.306ZM14.3677 21.18C13.5037 21.18 12.7717 20.988 12.1717 20.604C11.5837 20.208 11.1397 19.68 10.8397 19.02C10.5517 18.348 10.4077 17.598 10.4077 16.77C10.4077 15.942 10.5517 15.198 10.8397 14.538C11.1397 13.866 11.5837 13.338 12.1717 12.954C12.7717 12.558 13.5037 12.36 14.3677 12.36C15.6877 12.36 16.5577 12.57 16.9777 12.99C17.1817 13.194 17.3077 13.446 17.3557 13.746C17.4037 14.034 17.4277 14.562 17.4277 15.33H17.0677C17.0197 14.586 16.7857 14.028 16.3657 13.656C15.9457 13.272 15.3997 13.08 14.7277 13.08C13.8637 13.08 13.2097 13.422 12.7657 14.106C12.3337 14.79 12.1177 15.678 12.1177 16.77C12.1177 17.862 12.3337 18.75 12.7657 19.434C13.2097 20.118 13.8637 20.46 14.7277 20.46C15.3397 20.46 15.8437 20.346 16.2397 20.118C16.6357 19.878 17.0017 19.512 17.3377 19.02L17.6977 19.29C17.3017 19.962 16.8337 20.448 16.2937 20.748C15.7537 21.036 15.1117 21.18 14.3677 21.18ZM19.5948 11.28C19.5948 10.668 19.5108 10.218 19.3428 9.93C19.1748 9.63 18.8388 9.48 18.3348 9.48H17.9748V9.12H19.5948C20.0388 9.12 20.3688 9.18 20.5848 9.3C20.8128 9.408 20.9748 9.612 21.0708 9.912C21.1668 10.212 21.2148 10.668 21.2148 11.28V13.26C21.4668 13.008 21.7908 12.798 22.1868 12.63C22.5948 12.45 23.0508 12.36 23.5548 12.36C24.4548 12.36 25.1868 12.6 25.7508 13.08C26.3268 13.56 26.6148 14.4 26.6148 15.6V21H24.9948V15.6C24.9948 14.76 24.8028 14.148 24.4188 13.764C24.0468 13.368 23.5788 13.17 23.0148 13.17C22.3788 13.17 21.7788 13.488 21.2148 14.124V21H19.5948V11.28ZM32.4162 21.18C31.6002 21.18 30.9102 20.988 30.3462 20.604C29.7822 20.208 29.3562 19.68 29.0682 19.02C28.7802 18.348 28.6362 17.598 28.6362 16.77C28.6362 15.954 28.7802 15.21 29.0682 14.538C29.3562 13.866 29.7702 13.338 30.3102 12.954C30.8622 12.558 31.5042 12.36 32.2362 12.36C33.4482 12.36 34.3482 12.702 34.9362 13.386C35.5362 14.058 35.8362 15.036 35.8362 16.32L35.8002 17.04H30.3462C30.3462 18.048 30.5622 18.87 30.9942 19.506C31.4262 20.142 32.0202 20.46 32.7762 20.46C33.3402 20.46 33.8142 20.34 34.1982 20.1C34.5942 19.86 34.9602 19.5 35.2962 19.02L35.6562 19.29C35.2602 19.95 34.7982 20.43 34.2702 20.73C33.7422 21.03 33.1242 21.18 32.4162 21.18ZM34.1262 16.32C34.1262 15.264 33.9702 14.46 33.6582 13.908C33.3462 13.356 32.8722 13.08 32.2362 13.08C31.8762 13.08 31.5522 13.224 31.2642 13.512C30.9762 13.788 30.7482 14.172 30.5802 14.664C30.4242 15.156 30.3462 15.708 30.3462 16.32H34.1262ZM38.1812 14.7C38.1812 14.088 38.0972 13.638 37.9292 13.35C37.7612 13.05 37.4252 12.9 36.9212 12.9H36.5612V12.54H38.1812C38.6252 12.54 38.9612 12.6 39.1892 12.72C39.4292 12.84 39.6032 13.02 39.7112 13.26H39.8012C40.0532 13.008 40.3772 12.798 40.7732 12.63C41.1812 12.45 41.6372 12.36 42.1412 12.36C42.6452 12.36 43.0772 12.456 43.4372 12.648C43.7972 12.828 44.0852 13.152 44.3012 13.62C44.6132 13.224 45.0092 12.918 45.4892 12.702C45.9812 12.474 46.4852 12.36 47.0012 12.36C47.7692 12.36 48.3812 12.6 48.8372 13.08C49.2932 13.56 49.5212 14.4 49.5212 15.6V21H47.9012V15.6C47.9012 14.736 47.7812 14.118 47.5412 13.746C47.3012 13.362 46.9412 13.17 46.4612 13.17C46.1252 13.17 45.7712 13.296 45.3992 13.548C45.0272 13.788 44.7512 14.052 44.5712 14.34C44.6312 14.52 44.6612 14.94 44.6612 15.6V21H43.0412V15.6C43.0412 14.736 42.9212 14.118 42.6812 13.746C42.4412 13.362 42.0812 13.17 41.6012 13.17C40.9652 13.17 40.3652 13.488 39.8012 14.124V21H38.1812V14.7ZM54.06 21.18C53.676 21.18 53.286 21.102 52.89 20.946C52.494 20.778 52.152 20.508 51.864 20.136C51.588 19.764 51.45 19.272 51.45 18.66C51.45 17.748 51.87 17.1 52.71 16.716C53.562 16.332 54.672 16.14 56.04 16.14H56.58C56.58 14.964 56.418 14.16 56.094 13.728C55.77 13.296 55.302 13.08 54.69 13.08C54.15 13.08 53.718 13.194 53.394 13.422C53.07 13.65 52.842 14.046 52.71 14.61H51.9C51.9 14.202 51.924 13.884 51.972 13.656C52.02 13.416 52.146 13.194 52.35 12.99C52.566 12.774 52.92 12.618 53.412 12.522C53.916 12.414 54.462 12.36 55.05 12.36C56.022 12.36 56.79 12.624 57.354 13.152C57.918 13.668 58.2 14.664 58.2 16.14V21H57.3L56.67 20.19H56.58C56.364 20.466 56.046 20.7 55.626 20.892C55.206 21.084 54.684 21.18 54.06 21.18ZM54.87 20.37C55.266 20.37 55.596 20.274 55.86 20.082C56.124 19.89 56.364 19.626 56.58 19.29V16.86H56.04C55.152 16.86 54.45 17.028 53.934 17.364C53.418 17.688 53.16 18.12 53.16 18.66C53.16 19.212 53.322 19.638 53.646 19.938C53.982 20.226 54.39 20.37 54.87 20.37ZM68.6841 21.18C67.8201 21.18 67.0881 20.988 66.4881 20.604C65.9001 20.208 65.4561 19.68 65.1561 19.02C64.8681 18.348 64.7241 17.598 64.7241 16.77C64.7241 15.942 64.8681 15.198 65.1561 14.538C65.4561 13.866 65.9001 13.338 66.4881 12.954C67.0881 12.558 67.8201 12.36 68.6841 12.36C70.0041 12.36 70.8741 12.57 71.2941 12.99C71.4981 13.194 71.6241 13.446 71.6721 13.746C71.7201 14.034 71.7441 14.562 71.7441 15.33H71.3841C71.3361 14.586 71.1021 14.028 70.6821 13.656C70.2621 13.272 69.7161 13.08 69.0441 13.08C68.1801 13.08 67.5261 13.422 67.0821 14.106C66.6501 14.79 66.4341 15.678 66.4341 16.77C66.4341 17.862 66.6501 18.75 67.0821 19.434C67.5261 20.118 68.1801 20.46 69.0441 20.46C69.6561 20.46 70.1601 20.346 70.5561 20.118C70.9521 19.878 71.3181 19.512 71.6541 19.02L72.0141 19.29C71.6181 19.962 71.1501 20.448 70.6101 20.748C70.0701 21.036 69.4281 21.18 68.6841 21.18ZM77.3852 21.18C76.5692 21.18 75.8612 20.988 75.2612 20.604C74.6612 20.208 74.2052 19.674 73.8932 19.002C73.5812 18.33 73.4252 17.586 73.4252 16.77C73.4252 15.954 73.5812 15.21 73.8932 14.538C74.2052 13.866 74.6612 13.338 75.2612 12.954C75.8612 12.558 76.5692 12.36 77.3852 12.36C78.2012 12.36 78.9092 12.558 79.5092 12.954C80.1092 13.338 80.5652 13.866 80.8772 14.538C81.1892 15.21 81.3452 15.954 81.3452 16.77C81.3452 17.586 81.1892 18.33 80.8772 19.002C80.5652 19.674 80.1092 20.208 79.5092 20.604C78.9092 20.988 78.2012 21.18 77.3852 21.18ZM77.3852 20.46C77.8292 20.46 78.2192 20.298 78.5552 19.974C78.9032 19.65 79.1672 19.206 79.3472 18.642C79.5392 18.078 79.6352 17.454 79.6352 16.77C79.6352 16.086 79.5392 15.462 79.3472 14.898C79.1672 14.334 78.9032 13.89 78.5552 13.566C78.2192 13.242 77.8292 13.08 77.3852 13.08C76.9412 13.08 76.5452 13.242 76.1972 13.566C75.8612 13.89 75.5972 14.334 75.4052 14.898C75.2252 15.462 75.1352 16.086 75.1352 16.77C75.1352 17.454 75.2252 18.078 75.4052 18.642C75.5972 19.206 75.8612 19.65 76.1972 19.974C76.5452 20.298 76.9412 20.46 77.3852 20.46ZM86.2462 21.18C85.2022 21.18 84.3982 20.766 83.8342 19.938C83.2822 19.11 83.0062 18.054 83.0062 16.77C83.0062 15.486 83.2942 14.43 83.8702 13.602C84.4582 12.774 85.3102 12.36 86.4262 12.36C86.8822 12.36 87.2842 12.408 87.6322 12.504C87.9802 12.6 88.3282 12.732 88.6762 12.9V11.28C88.6762 10.668 88.5922 10.218 88.4242 9.93C88.2562 9.63 87.9202 9.48 87.4162 9.48H87.0562V9.12H88.6762C89.1202 9.12 89.4502 9.18 89.6662 9.3C89.8942 9.408 90.0562 9.612 90.1522 9.912C90.2482 10.212 90.2962 10.668 90.2962 11.28V21H89.3962L88.7662 20.19H88.6762C88.4122 20.49 88.1002 20.73 87.7402 20.91C87.3922 21.09 86.8942 21.18 86.2462 21.18ZM86.7862 20.46C87.2782 20.46 87.6502 20.37 87.9022 20.19C88.1542 20.01 88.4122 19.74 88.6762 19.38V13.62C88.3162 13.452 88.0042 13.32 87.7402 13.224C87.4762 13.128 87.2182 13.08 86.9662 13.08C86.1982 13.08 85.6282 13.416 85.2562 14.088C84.8962 14.76 84.7162 15.654 84.7162 16.77C84.7162 17.874 84.8902 18.768 85.2382 19.452C85.5862 20.124 86.1022 20.46 86.7862 20.46ZM96.1896 21.18C95.3736 21.18 94.6836 20.988 94.1196 20.604C93.5556 20.208 93.1296 19.68 92.8416 19.02C92.5536 18.348 92.4096 17.598 92.4096 16.77C92.4096 15.954 92.5536 15.21 92.8416 14.538C93.1296 13.866 93.5436 13.338 94.0836 12.954C94.6356 12.558 95.2776 12.36 96.0096 12.36C97.2216 12.36 98.1216 12.702 98.7096 13.386C99.3096 14.058 99.6096 15.036 99.6096 16.32L99.5736 17.04H94.1196C94.1196 18.048 94.3356 18.87 94.7676 19.506C95.1996 20.142 95.7936 20.46 96.5496 20.46C97.1136 20.46 97.5876 20.34 97.9716 20.1C98.3676 19.86 98.7336 19.5 99.0696 19.02L99.4296 19.29C99.0336 19.95 98.5716 20.43 98.0436 20.73C97.5156 21.03 96.8976 21.18 96.1896 21.18ZM97.8996 16.32C97.8996 15.264 97.7436 14.46 97.4316 13.908C97.1196 13.356 96.6456 13.08 96.0096 13.08C95.6496 13.08 95.3256 13.224 95.0376 13.512C94.7496 13.788 94.5216 14.172 94.3536 14.664C94.1976 15.156 94.1196 15.708 94.1196 16.32H97.8996Z"/>
</mask>
<path d="M5.076 21.306C4.416 21.306 3.768 21.216 3.132 21.036C2.496 20.856 1.974 20.598 1.566 20.262C1.17 19.926 0.972 19.542 0.972 19.11V17.184H1.296C1.5 18.384 1.896 19.254 2.484 19.794C3.072 20.322 3.882 20.586 4.914 20.586C5.562 20.586 6.114 20.424 6.57 20.1C7.038 19.776 7.272 19.326 7.272 18.75C7.272 18.246 7.116 17.808 6.804 17.436C6.492 17.064 5.988 16.674 5.292 16.266L3.078 14.952C2.31 14.496 1.764 14.034 1.44 13.566C1.128 13.098 0.972 12.528 0.972 11.856C0.972 10.932 1.29 10.194 1.926 9.642C2.574 9.078 3.42 8.796 4.464 8.796C5.076 8.796 5.682 8.886 6.282 9.066C6.882 9.234 7.374 9.486 7.758 9.822C8.154 10.146 8.352 10.524 8.352 10.956V12.882H8.028C7.824 11.682 7.434 10.824 6.858 10.308C6.294 9.78 5.496 9.516 4.464 9.516C3.912 9.516 3.426 9.684 3.006 10.02C2.586 10.356 2.376 10.794 2.376 11.334C2.376 11.826 2.526 12.234 2.826 12.558C3.138 12.882 3.654 13.26 4.374 13.692L6.588 15.006C7.404 15.498 7.98 15.954 8.316 16.374C8.652 16.794 8.82 17.328 8.82 17.976C8.82 18.984 8.484 19.794 7.812 20.406C7.14 21.006 6.228 21.306 5.076 21.306ZM14.3677 21.18C13.5037 21.18 12.7717 20.988 12.1717 20.604C11.5837 20.208 11.1397 19.68 10.8397 19.02C10.5517 18.348 10.4077 17.598 10.4077 16.77C10.4077 15.942 10.5517 15.198 10.8397 14.538C11.1397 13.866 11.5837 13.338 12.1717 12.954C12.7717 12.558 13.5037 12.36 14.3677 12.36C15.6877 12.36 16.5577 12.57 16.9777 12.99C17.1817 13.194 17.3077 13.446 17.3557 13.746C17.4037 14.034 17.4277 14.562 17.4277 15.33H17.0677C17.0197 14.586 16.7857 14.028 16.3657 13.656C15.9457 13.272 15.3997 13.08 14.7277 13.08C13.8637 13.08 13.2097 13.422 12.7657 14.106C12.3337 14.79 12.1177 15.678 12.1177 16.77C12.1177 17.862 12.3337 18.75 12.7657 19.434C13.2097 20.118 13.8637 20.46 14.7277 20.46C15.3397 20.46 15.8437 20.346 16.2397 20.118C16.6357 19.878 17.0017 19.512 17.3377 19.02L17.6977 19.29C17.3017 19.962 16.8337 20.448 16.2937 20.748C15.7537 21.036 15.1117 21.18 14.3677 21.18ZM19.5948 11.28C19.5948 10.668 19.5108 10.218 19.3428 9.93C19.1748 9.63 18.8388 9.48 18.3348 9.48H17.9748V9.12H19.5948C20.0388 9.12 20.3688 9.18 20.5848 9.3C20.8128 9.408 20.9748 9.612 21.0708 9.912C21.1668 10.212 21.2148 10.668 21.2148 11.28V13.26C21.4668 13.008 21.7908 12.798 22.1868 12.63C22.5948 12.45 23.0508 12.36 23.5548 12.36C24.4548 12.36 25.1868 12.6 25.7508 13.08C26.3268 13.56 26.6148 14.4 26.6148 15.6V21H24.9948V15.6C24.9948 14.76 24.8028 14.148 24.4188 13.764C24.0468 13.368 23.5788 13.17 23.0148 13.17C22.3788 13.17 21.7788 13.488 21.2148 14.124V21H19.5948V11.28ZM32.4162 21.18C31.6002 21.18 30.9102 20.988 30.3462 20.604C29.7822 20.208 29.3562 19.68 29.0682 19.02C28.7802 18.348 28.6362 17.598 28.6362 16.77C28.6362 15.954 28.7802 15.21 29.0682 14.538C29.3562 13.866 29.7702 13.338 30.3102 12.954C30.8622 12.558 31.5042 12.36 32.2362 12.36C33.4482 12.36 34.3482 12.702 34.9362 13.386C35.5362 14.058 35.8362 15.036 35.8362 16.32L35.8002 17.04H30.3462C30.3462 18.048 30.5622 18.87 30.9942 19.506C31.4262 20.142 32.0202 20.46 32.7762 20.46C33.3402 20.46 33.8142 20.34 34.1982 20.1C34.5942 19.86 34.9602 19.5 35.2962 19.02L35.6562 19.29C35.2602 19.95 34.7982 20.43 34.2702 20.73C33.7422 21.03 33.1242 21.18 32.4162 21.18ZM34.1262 16.32C34.1262 15.264 33.9702 14.46 33.6582 13.908C33.3462 13.356 32.8722 13.08 32.2362 13.08C31.8762 13.08 31.5522 13.224 31.2642 13.512C30.9762 13.788 30.7482 14.172 30.5802 14.664C30.4242 15.156 30.3462 15.708 30.3462 16.32H34.1262ZM38.1812 14.7C38.1812 14.088 38.0972 13.638 37.9292 13.35C37.7612 13.05 37.4252 12.9 36.9212 12.9H36.5612V12.54H38.1812C38.6252 12.54 38.9612 12.6 39.1892 12.72C39.4292 12.84 39.6032 13.02 39.7112 13.26H39.8012C40.0532 13.008 40.3772 12.798 40.7732 12.63C41.1812 12.45 41.6372 12.36 42.1412 12.36C42.6452 12.36 43.0772 12.456 43.4372 12.648C43.7972 12.828 44.0852 13.152 44.3012 13.62C44.6132 13.224 45.0092 12.918 45.4892 12.702C45.9812 12.474 46.4852 12.36 47.0012 12.36C47.7692 12.36 48.3812 12.6 48.8372 13.08C49.2932 13.56 49.5212 14.4 49.5212 15.6V21H47.9012V15.6C47.9012 14.736 47.7812 14.118 47.5412 13.746C47.3012 13.362 46.9412 13.17 46.4612 13.17C46.1252 13.17 45.7712 13.296 45.3992 13.548C45.0272 13.788 44.7512 14.052 44.5712 14.34C44.6312 14.52 44.6612 14.94 44.6612 15.6V21H43.0412V15.6C43.0412 14.736 42.9212 14.118 42.6812 13.746C42.4412 13.362 42.0812 13.17 41.6012 13.17C40.9652 13.17 40.3652 13.488 39.8012 14.124V21H38.1812V14.7ZM54.06 21.18C53.676 21.18 53.286 21.102 52.89 20.946C52.494 20.778 52.152 20.508 51.864 20.136C51.588 19.764 51.45 19.272 51.45 18.66C51.45 17.748 51.87 17.1 52.71 16.716C53.562 16.332 54.672 16.14 56.04 16.14H56.58C56.58 14.964 56.418 14.16 56.094 13.728C55.77 13.296 55.302 13.08 54.69 13.08C54.15 13.08 53.718 13.194 53.394 13.422C53.07 13.65 52.842 14.046 52.71 14.61H51.9C51.9 14.202 51.924 13.884 51.972 13.656C52.02 13.416 52.146 13.194 52.35 12.99C52.566 12.774 52.92 12.618 53.412 12.522C53.916 12.414 54.462 12.36 55.05 12.36C56.022 12.36 56.79 12.624 57.354 13.152C57.918 13.668 58.2 14.664 58.2 16.14V21H57.3L56.67 20.19H56.58C56.364 20.466 56.046 20.7 55.626 20.892C55.206 21.084 54.684 21.18 54.06 21.18ZM54.87 20.37C55.266 20.37 55.596 20.274 55.86 20.082C56.124 19.89 56.364 19.626 56.58 19.29V16.86H56.04C55.152 16.86 54.45 17.028 53.934 17.364C53.418 17.688 53.16 18.12 53.16 18.66C53.16 19.212 53.322 19.638 53.646 19.938C53.982 20.226 54.39 20.37 54.87 20.37ZM68.6841 21.18C67.8201 21.18 67.0881 20.988 66.4881 20.604C65.9001 20.208 65.4561 19.68 65.1561 19.02C64.8681 18.348 64.7241 17.598 64.7241 16.77C64.7241 15.942 64.8681 15.198 65.1561 14.538C65.4561 13.866 65.9001 13.338 66.4881 12.954C67.0881 12.558 67.8201 12.36 68.6841 12.36C70.0041 12.36 70.8741 12.57 71.2941 12.99C71.4981 13.194 71.6241 13.446 71.6721 13.746C71.7201 14.034 71.7441 14.562 71.7441 15.33H71.3841C71.3361 14.586 71.1021 14.028 70.6821 13.656C70.2621 13.272 69.7161 13.08 69.0441 13.08C68.1801 13.08 67.5261 13.422 67.0821 14.106C66.6501 14.79 66.4341 15.678 66.4341 16.77C66.4341 17.862 66.6501 18.75 67.0821 19.434C67.5261 20.118 68.1801 20.46 69.0441 20.46C69.6561 20.46 70.1601 20.346 70.5561 20.118C70.9521 19.878 71.3181 19.512 71.6541 19.02L72.0141 19.29C71.6181 19.962 71.1501 20.448 70.6101 20.748C70.0701 21.036 69.4281 21.18 68.6841 21.18ZM77.3852 21.18C76.5692 21.18 75.8612 20.988 75.2612 20.604C74.6612 20.208 74.2052 19.674 73.8932 19.002C73.5812 18.33 73.4252 17.586 73.4252 16.77C73.4252 15.954 73.5812 15.21 73.8932 14.538C74.2052 13.866 74.6612 13.338 75.2612 12.954C75.8612 12.558 76.5692 12.36 77.3852 12.36C78.2012 12.36 78.9092 12.558 79.5092 12.954C80.1092 13.338 80.5652 13.866 80.8772 14.538C81.1892 15.21 81.3452 15.954 81.3452 16.77C81.3452 17.586 81.1892 18.33 80.8772 19.002C80.5652 19.674 80.1092 20.208 79.5092 20.604C78.9092 20.988 78.2012 21.18 77.3852 21.18ZM77.3852 20.46C77.8292 20.46 78.2192 20.298 78.5552 19.974C78.9032 19.65 79.1672 19.206 79.3472 18.642C79.5392 18.078 79.6352 17.454 79.6352 16.77C79.6352 16.086 79.5392 15.462 79.3472 14.898C79.1672 14.334 78.9032 13.89 78.5552 13.566C78.2192 13.242 77.8292 13.08 77.3852 13.08C76.9412 13.08 76.5452 13.242 76.1972 13.566C75.8612 13.89 75.5972 14.334 75.4052 14.898C75.2252 15.462 75.1352 16.086 75.1352 16.77C75.1352 17.454 75.2252 18.078 75.4052 18.642C75.5972 19.206 75.8612 19.65 76.1972 19.974C76.5452 20.298 76.9412 20.46 77.3852 20.46ZM86.2462 21.18C85.2022 21.18 84.3982 20.766 83.8342 19.938C83.2822 19.11 83.0062 18.054 83.0062 16.77C83.0062 15.486 83.2942 14.43 83.8702 13.602C84.4582 12.774 85.3102 12.36 86.4262 12.36C86.8822 12.36 87.2842 12.408 87.6322 12.504C87.9802 12.6 88.3282 12.732 88.6762 12.9V11.28C88.6762 10.668 88.5922 10.218 88.4242 9.93C88.2562 9.63 87.9202 9.48 87.4162 9.48H87.0562V9.12H88.6762C89.1202 9.12 89.4502 9.18 89.6662 9.3C89.8942 9.408 90.0562 9.612 90.1522 9.912C90.2482 10.212 90.2962 10.668 90.2962 11.28V21H89.3962L88.7662 20.19H88.6762C88.4122 20.49 88.1002 20.73 87.7402 20.91C87.3922 21.09 86.8942 21.18 86.2462 21.18ZM86.7862 20.46C87.2782 20.46 87.6502 20.37 87.9022 20.19C88.1542 20.01 88.4122 19.74 88.6762 19.38V13.62C88.3162 13.452 88.0042 13.32 87.7402 13.224C87.4762 13.128 87.2182 13.08 86.9662 13.08C86.1982 13.08 85.6282 13.416 85.2562 14.088C84.8962 14.76 84.7162 15.654 84.7162 16.77C84.7162 17.874 84.8902 18.768 85.2382 19.452C85.5862 20.124 86.1022 20.46 86.7862 20.46ZM96.1896 21.18C95.3736 21.18 94.6836 20.988 94.1196 20.604C93.5556 20.208 93.1296 19.68 92.8416 19.02C92.5536 18.348 92.4096 17.598 92.4096 16.77C92.4096 15.954 92.5536 15.21 92.8416 14.538C93.1296 13.866 93.5436 13.338 94.0836 12.954C94.6356 12.558 95.2776 12.36 96.0096 12.36C97.2216 12.36 98.1216 12.702 98.7096 13.386C99.3096 14.058 99.6096 15.036 99.6096 16.32L99.5736 17.04H94.1196C94.1196 18.048 94.3356 18.87 94.7676 19.506C95.1996 20.142 95.7936 20.46 96.5496 20.46C97.1136 20.46 97.5876 20.34 97.9716 20.1C98.3676 19.86 98.7336 19.5 99.0696 19.02L99.4296 19.29C99.0336 19.95 98.5716 20.43 98.0436 20.73C97.5156 21.03 96.8976 21.18 96.1896 21.18ZM97.8996 16.32C97.8996 15.264 97.7436 14.46 97.4316 13.908C97.1196 13.356 96.6456 13.08 96.0096 13.08C95.6496 13.08 95.3256 13.224 95.0376 13.512C94.7496 13.788 94.5216 14.172 94.3536 14.664C94.1976 15.156 94.1196 15.708 94.1196 16.32H97.8996Z" fill="black"/>
<path d="M3.132 21.036L3.18646 20.8436L3.132 21.036ZM1.566 20.262L1.43659 20.4145L1.43886 20.4164L1.566 20.262ZM0.972 17.184V16.984H0.772V17.184H0.972ZM1.296 17.184L1.49317 17.1505L1.46487 16.984H1.296V17.184ZM2.484 19.794L2.34871 19.9413L2.35038 19.9428L2.484 19.794ZM6.57 20.1L6.45615 19.9355L6.45416 19.937L6.57 20.1ZM5.292 16.266L5.18992 16.438L5.19086 16.4385L5.292 16.266ZM3.078 14.952L2.97589 15.124L2.97592 15.124L3.078 14.952ZM1.44 13.566L1.27356 13.677L1.27556 13.6798L1.44 13.566ZM1.926 9.642L2.05709 9.79304L2.05731 9.79286L1.926 9.642ZM6.282 9.066L6.22452 9.2576L6.22807 9.25859L6.282 9.066ZM7.758 9.822L7.62623 9.9726L7.63135 9.97679L7.758 9.822ZM8.352 12.882V13.082H8.552V12.882H8.352ZM8.028 12.882L7.83083 12.9155L7.85913 13.082H8.028V12.882ZM6.858 10.308L6.72128 10.454L6.72455 10.457L6.858 10.308ZM3.006 10.02L3.13094 10.1762L3.006 10.02ZM2.826 12.558L2.67922 12.6939L2.68194 12.6967L2.826 12.558ZM4.374 13.692L4.2711 13.8635L4.27192 13.864L4.374 13.692ZM6.588 15.006L6.69127 14.8347L6.69008 14.834L6.588 15.006ZM8.316 16.374L8.15983 16.4989L8.316 16.374ZM7.812 20.406L7.94521 20.5552L7.94667 20.5539L7.812 20.406ZM5.076 21.106C4.43444 21.106 3.80477 21.0186 3.18646 20.8436L3.07754 21.2284C3.73123 21.4134 4.39756 21.506 5.076 21.506V21.106ZM3.18646 20.8436C2.5706 20.6693 2.07517 20.4222 1.69314 20.1076L1.43886 20.4164C1.87283 20.7738 2.4214 21.0427 3.07754 21.2284L3.18646 20.8436ZM1.6954 20.1095C1.33423 19.8031 1.172 19.4714 1.172 19.11H0.772C0.772 19.6126 1.00577 20.0489 1.4366 20.4145L1.6954 20.1095ZM1.172 19.11V17.184H0.772V19.11H1.172ZM0.972 17.384H1.296V16.984H0.972V17.384ZM1.09883 17.2175C1.30657 18.4395 1.71484 19.3592 2.34872 19.9413L2.61928 19.6467C2.07716 19.1488 1.69343 18.3285 1.49317 17.1505L1.09883 17.2175ZM2.35038 19.9428C2.98515 20.5128 3.84812 20.786 4.914 20.786V20.386C3.91588 20.386 3.15885 20.1312 2.61763 19.6452L2.35038 19.9428ZM4.914 20.786C5.59672 20.786 6.19085 20.6147 6.68584 20.263L6.45416 19.937C6.03715 20.2333 5.52728 20.386 4.914 20.386V20.786ZM6.68384 20.2644C7.20657 19.9026 7.472 19.3907 7.472 18.75H7.072C7.072 19.2613 6.86943 19.6494 6.45616 19.9356L6.68384 20.2644ZM7.472 18.75C7.472 18.2009 7.30067 17.717 6.95724 17.3075L6.65076 17.5645C6.93133 17.899 7.072 18.2911 7.072 18.75H7.472ZM6.95724 17.3075C6.62398 16.9101 6.09762 16.5064 5.39314 16.0935L5.19086 16.4385C5.87838 16.8416 6.36002 17.2179 6.65076 17.5645L6.95724 17.3075ZM5.39408 16.094L3.18008 14.78L2.97592 15.124L5.18992 16.438L5.39408 16.094ZM3.18011 14.78C2.42424 14.3312 1.90541 13.8869 1.60444 13.4522L1.27556 13.6798C1.62259 14.1811 2.19576 14.6608 2.97589 15.124L3.18011 14.78ZM1.60641 13.4551C1.32028 13.0259 1.172 12.4963 1.172 11.856H0.772C0.772 12.5597 0.935721 13.1701 1.27359 13.6769L1.60641 13.4551ZM1.172 11.856C1.172 10.9836 1.46943 10.3031 2.05709 9.79304L1.79491 9.49096C1.11057 10.0849 0.772 10.8804 0.772 11.856H1.172ZM2.05731 9.79286C2.66147 9.26701 3.45741 8.996 4.464 8.996V8.596C3.38259 8.596 2.48653 8.88899 1.7947 9.49114L2.05731 9.79286ZM4.464 8.996C5.05608 8.996 5.64273 9.08302 6.22453 9.25756L6.33947 8.87443C5.72127 8.68897 5.09592 8.596 4.464 8.596V8.996ZM6.22807 9.25859C6.80557 9.42029 7.26917 9.66003 7.6263 9.97251L7.8897 9.67148C7.47883 9.31197 6.95843 9.04771 6.33593 8.87341L6.22807 9.25859ZM7.63135 9.97679C7.99044 10.2706 8.152 10.5953 8.152 10.956H8.552C8.552 10.4527 8.31756 10.0214 7.88465 9.66721L7.63135 9.97679ZM8.152 10.956V12.882H8.552V10.956H8.152ZM8.352 12.682H8.028V13.082H8.352V12.682ZM8.22517 12.8485C8.01768 11.6279 7.61565 10.7182 6.99145 10.159L6.72455 10.457C7.25236 10.9298 7.63032 11.7361 7.83083 12.9155L8.22517 12.8485ZM6.99469 10.162C6.38261 9.58899 5.52934 9.316 4.464 9.316V9.716C5.46266 9.716 6.20539 9.97101 6.72132 10.454L6.99469 10.162ZM4.464 9.316C3.86788 9.316 3.33752 9.49866 2.88106 9.86383L3.13094 10.1762C3.51448 9.86934 3.95612 9.716 4.464 9.716V9.316ZM2.88106 9.86383C2.4134 10.238 2.176 10.7335 2.176 11.334H2.576C2.576 10.8545 2.7586 10.474 3.13094 10.1762L2.88106 9.86383ZM2.176 11.334C2.176 11.8702 2.34101 12.3286 2.67925 12.6939L2.97275 12.4221C2.71099 12.1394 2.576 11.7818 2.576 11.334H2.176ZM2.68194 12.6967C3.0125 13.04 3.54664 13.4288 4.2711 13.8635L4.4769 13.5205C3.76136 13.0912 3.2635 12.724 2.97006 12.4193L2.68194 12.6967ZM4.27192 13.864L6.48593 15.178L6.69008 14.834L4.47608 13.52L4.27192 13.864ZM6.48473 15.1773C7.29362 15.665 7.84582 16.1064 8.15983 16.4989L8.47217 16.2491C8.11418 15.8016 7.51438 15.331 6.69127 14.8347L6.48473 15.1773ZM8.15983 16.4989C8.46198 16.8766 8.62 17.3638 8.62 17.976H9.02C9.02 17.2922 8.84203 16.7114 8.47217 16.2491L8.15983 16.4989ZM8.62 17.976C8.62 18.9345 8.30292 19.6884 7.67733 20.2581L7.94667 20.5539C8.66508 19.8996 9.02 19.0335 9.02 17.976H8.62ZM7.6788 20.2568C7.05277 20.8158 6.19298 21.106 5.076 21.106V21.506C6.26302 21.506 7.22723 21.1962 7.9452 20.5552L7.6788 20.2568ZM12.1717 20.604L12.0599 20.7699L12.0638 20.7725L12.1717 20.604ZM10.8397 19.02L10.6558 19.0988L10.6576 19.1028L10.8397 19.02ZM10.8397 14.538L10.657 14.4565L10.6563 14.458L10.8397 14.538ZM12.1717 12.954L12.281 13.1215L12.2818 13.1209L12.1717 12.954ZM17.3557 13.746L17.1582 13.7776L17.1584 13.7789L17.3557 13.746ZM17.4277 15.33V15.53H17.6277V15.33H17.4277ZM17.0677 15.33L16.8681 15.3429L16.8801 15.53H17.0677V15.33ZM16.3657 13.656L16.2307 13.8036L16.233 13.8057L16.3657 13.656ZM12.7657 14.106L12.5979 13.9971L12.5966 13.9992L12.7657 14.106ZM12.7657 19.434L12.5965 19.5408L12.5979 19.5429L12.7657 19.434ZM16.2397 20.118L16.3395 20.2914L16.3433 20.289L16.2397 20.118ZM17.3377 19.02L17.4577 18.86L17.2904 18.7346L17.1725 18.9072L17.3377 19.02ZM17.6977 19.29L17.87 19.3915L17.9608 19.2374L17.8177 19.13L17.6977 19.29ZM16.2937 20.748L16.3878 20.9245L16.3908 20.9228L16.2937 20.748ZM14.3677 20.98C13.5337 20.98 12.841 20.7949 12.2795 20.4355L12.0638 20.7725C12.7023 21.1811 13.4736 21.38 14.3677 21.38V20.98ZM12.2834 20.4381C11.7268 20.0633 11.3068 19.5644 11.0217 18.9372L10.6576 19.1028C10.9725 19.7956 11.4405 20.3527 12.0599 20.7699L12.2834 20.4381ZM11.0235 18.9412C10.7475 18.2972 10.6077 17.5745 10.6077 16.77H10.2077C10.2077 17.6215 10.3558 18.3988 10.6558 19.0988L11.0235 18.9412ZM10.6077 16.77C10.6077 15.9654 10.7475 15.2493 11.023 14.618L10.6563 14.458C10.3558 15.1467 10.2077 15.9186 10.2077 16.77H10.6077ZM11.0223 14.6195C11.3074 13.9808 11.7268 13.4834 12.281 13.1215L12.0623 12.7865C11.4405 13.1926 10.9719 13.7512 10.657 14.4565L11.0223 14.6195ZM12.2818 13.1209C12.843 12.7505 13.5348 12.56 14.3677 12.56V12.16C13.4725 12.16 12.7003 12.3655 12.0615 12.7871L12.2818 13.1209ZM14.3677 12.56C15.0186 12.56 15.549 12.6119 15.9632 12.7119C16.3793 12.8123 16.6623 12.9574 16.8362 13.1314L17.1191 12.8486C16.8731 12.6026 16.511 12.4327 16.0571 12.3231C15.6013 12.2131 15.0367 12.16 14.3677 12.16V12.56ZM16.8362 13.1314C17.0088 13.304 17.1164 13.5168 17.1582 13.7776L17.5531 13.7144C17.4989 13.3752 17.3545 13.084 17.1191 12.8486L16.8362 13.1314ZM17.1584 13.7789C17.2033 14.0484 17.2277 14.5608 17.2277 15.33H17.6277C17.6277 14.5632 17.604 14.0196 17.5529 13.7131L17.1584 13.7789ZM17.4277 15.13H17.0677V15.53H17.4277V15.13ZM17.2672 15.3171C17.217 14.5384 16.9694 13.9236 16.4983 13.5063L16.233 13.8057C16.6019 14.1324 16.8223 14.6336 16.8681 15.3429L17.2672 15.3171ZM16.5006 13.5084C16.0372 13.0847 15.44 12.88 14.7277 12.88V13.28C15.3593 13.28 15.8541 13.4593 16.2307 13.8036L16.5006 13.5084ZM14.7277 12.88C13.8007 12.88 13.0813 13.2524 12.5979 13.9971L12.9334 14.2149C13.338 13.5916 13.9266 13.28 14.7277 13.28V12.88ZM12.5966 13.9992C12.1385 14.7245 11.9177 15.653 11.9177 16.77H12.3177C12.3177 15.703 12.5288 14.8555 12.9348 14.2128L12.5966 13.9992ZM11.9177 16.77C11.9177 17.887 12.1385 18.8155 12.5966 19.5408L12.9348 19.3272C12.5288 18.6845 12.3177 17.837 12.3177 16.77H11.9177ZM12.5979 19.5429C13.0813 20.2876 13.8007 20.66 14.7277 20.66V20.26C13.9266 20.26 13.338 19.9484 12.9334 19.3251L12.5979 19.5429ZM14.7277 20.66C15.3632 20.66 15.9045 20.5417 16.3394 20.2913L16.1399 19.9447C15.7828 20.1502 15.3161 20.26 14.7277 20.26V20.66ZM16.3433 20.289C16.7697 20.0306 17.1552 19.6419 17.5028 19.1328L17.1725 18.9072C16.8482 19.3821 16.5016 19.7254 16.136 19.947L16.3433 20.289ZM17.2177 19.18L17.5777 19.45L17.8177 19.13L17.4577 18.86L17.2177 19.18ZM17.5253 19.1885C17.1427 19.8377 16.6982 20.2945 16.1965 20.5732L16.3908 20.9228C16.9691 20.6015 17.4606 20.0863 17.87 19.3915L17.5253 19.1885ZM16.1995 20.5715C15.6941 20.8411 15.0858 20.98 14.3677 20.98V21.38C15.1375 21.38 15.8132 21.2309 16.3878 20.9245L16.1995 20.5715ZM19.3428 9.93L19.1683 10.0277L19.1701 10.0308L19.3428 9.93ZM17.9748 9.48H17.7748V9.68H17.9748V9.48ZM17.9748 9.12V8.92H17.7748V9.12H17.9748ZM20.5848 9.3L20.4875 9.4752L20.4992 9.48075L20.5848 9.3ZM21.0708 9.912L21.2613 9.85104L21.0708 9.912ZM21.2148 13.26H21.0148V13.7428L21.3562 13.4014L21.2148 13.26ZM22.1868 12.63L22.2649 12.8141L22.2676 12.813L22.1868 12.63ZM25.7508 13.08L25.6212 13.2323L25.6228 13.2336L25.7508 13.08ZM26.6148 21V21.2H26.8148V21H26.6148ZM24.9948 21H24.7948V21.2H24.9948V21ZM24.4188 13.764L24.273 13.901L24.2774 13.9054L24.4188 13.764ZM21.2148 14.124L21.0652 13.9913L21.0148 14.0481V14.124H21.2148ZM21.2148 21V21.2H21.4148V21H21.2148ZM19.5948 21H19.3948V21.2H19.5948V21ZM19.7948 11.28C19.7948 10.6578 19.7109 10.164 19.5156 9.82923L19.1701 10.0308C19.3108 10.272 19.3948 10.6782 19.3948 11.28H19.7948ZM19.5173 9.83228C19.2989 9.44223 18.874 9.28 18.3348 9.28V9.68C18.8037 9.68 19.0508 9.81777 19.1683 10.0277L19.5173 9.83228ZM18.3348 9.28H17.9748V9.68H18.3348V9.28ZM18.1748 9.48V9.12H17.7748V9.48H18.1748ZM17.9748 9.32H19.5948V8.92H17.9748V9.32ZM19.5948 9.32C20.028 9.32 20.3166 9.37979 20.4877 9.47483L20.682 9.12517C20.421 8.98021 20.0496 8.92 19.5948 8.92V9.32ZM20.4992 9.48075C20.6653 9.55942 20.7967 9.71168 20.8803 9.97295L21.2613 9.85104C21.1529 9.51231 20.9604 9.25658 20.6704 9.11925L20.4992 9.48075ZM20.8803 9.97295C20.9666 10.2425 21.0148 10.673 21.0148 11.28H21.4148C21.4148 10.663 21.3671 10.1815 21.2613 9.85104L20.8803 9.97295ZM21.0148 11.28V13.26H21.4148V11.28H21.0148ZM21.3562 13.4014C21.5867 13.1709 21.8878 12.9741 22.2649 12.8141L22.1087 12.4459C21.6938 12.6219 21.3469 12.8451 21.0734 13.1186L21.3562 13.4014ZM22.2676 12.813C22.647 12.6456 23.075 12.56 23.5548 12.56V12.16C23.0266 12.16 22.5426 12.2544 22.1061 12.447L22.2676 12.813ZM23.5548 12.56C24.418 12.56 25.1007 12.7894 25.6212 13.2323L25.8805 12.9277C25.2729 12.4106 24.4917 12.16 23.5548 12.16V12.56ZM25.6228 13.2336C26.1317 13.6577 26.4148 14.424 26.4148 15.6H26.8148C26.8148 14.376 26.522 13.4623 25.8789 12.9264L25.6228 13.2336ZM26.4148 15.6V21H26.8148V15.6H26.4148ZM26.6148 20.8H24.9948V21.2H26.6148V20.8ZM25.1948 21V15.6H24.7948V21H25.1948ZM25.1948 15.6C25.1948 14.7353 24.9979 14.0602 24.5602 13.6226L24.2774 13.9054C24.6078 14.2358 24.7948 14.7847 24.7948 15.6H25.1948ZM24.5646 13.6271C24.1532 13.1891 23.6317 12.97 23.0148 12.97V13.37C23.526 13.37 23.9405 13.5469 24.2731 13.9009L24.5646 13.6271ZM23.0148 12.97C22.3041 12.97 21.6537 13.3277 21.0652 13.9913L21.3645 14.2567C21.904 13.6483 22.4536 13.37 23.0148 13.37V12.97ZM21.0148 14.124V21H21.4148V14.124H21.0148ZM21.2148 20.8H19.5948V21.2H21.2148V20.8ZM19.7948 21V11.28H19.3948V21H19.7948ZM30.3462 20.604L30.2312 20.7677L30.2336 20.7693L30.3462 20.604ZM29.0682 19.02L28.8843 19.0988L28.8849 19.1L29.0682 19.02ZM29.0682 14.538L28.8843 14.4592L29.0682 14.538ZM30.3102 12.954L30.4261 13.117L30.4268 13.1165L30.3102 12.954ZM34.9362 13.386L34.7845 13.5164L34.787 13.5192L34.9362 13.386ZM35.8362 16.32L36.0362 16.33V16.32H35.8362ZM35.8002 17.04V17.24H35.9904L35.9999 17.05L35.8002 17.04ZM30.3462 17.04V16.84H30.1462V17.04H30.3462ZM30.9942 19.506L31.1596 19.3936L30.9942 19.506ZM34.1982 20.1L34.0945 19.9289L34.0922 19.9304L34.1982 20.1ZM35.2962 19.02L35.4162 18.86L35.2508 18.736L35.1323 18.9053L35.2962 19.02ZM35.6562 19.29L35.8277 19.3929L35.9205 19.2382L35.7762 19.13L35.6562 19.29ZM34.2702 20.73L34.369 20.9039L34.2702 20.73ZM34.1262 16.32V16.52H34.3262V16.32H34.1262ZM33.6582 13.908L33.4841 14.0064V14.0064L33.6582 13.908ZM31.2642 13.512L31.4026 13.6564L31.4056 13.6534L31.2642 13.512ZM30.5802 14.664L30.3909 14.5994L30.3895 14.6036L30.5802 14.664ZM30.3462 16.32H30.1462V16.52H30.3462V16.32ZM32.4162 20.98C31.6323 20.98 30.9835 20.796 30.4587 20.4387L30.2336 20.7693C30.8369 21.18 31.568 21.38 32.4162 21.38V20.98ZM30.4611 20.4403C29.9285 20.0664 29.5255 19.5679 29.2515 18.94L28.8849 19.1C29.1869 19.7921 29.6358 20.3496 30.2312 20.7677L30.4611 20.4403ZM29.252 18.9412C28.976 18.2972 28.8362 17.5745 28.8362 16.77H28.4362C28.4362 17.6215 28.5843 18.3988 28.8843 19.0988L29.252 18.9412ZM28.8362 16.77C28.8362 15.9779 28.9758 15.2611 29.252 14.6168L28.8843 14.4592C28.5845 15.1589 28.4362 15.9301 28.4362 16.77H28.8362ZM29.252 14.6168C29.5271 13.975 29.9191 13.4775 30.4261 13.117L30.1943 12.791C29.6213 13.1985 29.1853 13.757 28.8843 14.4592L29.252 14.6168ZM30.4268 13.1165C30.9421 12.7468 31.5426 12.56 32.2362 12.56V12.16C31.4658 12.16 30.7823 12.3692 30.1936 12.7915L30.4268 13.1165ZM32.2362 12.56C33.411 12.56 34.2464 12.8904 34.7845 13.5164L35.0878 13.2556C34.4499 12.5136 33.4853 12.16 32.2362 12.16V12.56ZM34.787 13.5192C35.3427 14.1416 35.6362 15.0644 35.6362 16.32H36.0362C36.0362 15.0076 35.7297 13.9744 35.0854 13.2528L34.787 13.5192ZM35.6364 16.31L35.6004 17.03L35.9999 17.05L36.0359 16.33L35.6364 16.31ZM35.8002 16.84H30.3462V17.24H35.8002V16.84ZM30.1462 17.04C30.1462 18.0758 30.3682 18.9403 30.8287 19.6184L31.1596 19.3936C30.7562 18.7997 30.5462 18.0202 30.5462 17.04H30.1462ZM30.8287 19.6184C31.2972 20.3081 31.9526 20.66 32.7762 20.66V20.26C32.0878 20.26 31.5551 19.9759 31.1596 19.3936L30.8287 19.6184ZM32.7762 20.66C33.3685 20.66 33.8814 20.5338 34.3042 20.2696L34.0922 19.9304C33.7469 20.1462 33.3119 20.26 32.7762 20.26V20.66ZM34.3018 20.271C34.727 20.0134 35.1122 19.6316 35.46 19.1347L35.1323 18.9053C34.8082 19.3684 34.4613 19.7066 34.0945 19.929L34.3018 20.271ZM35.1762 19.18L35.5362 19.45L35.7762 19.13L35.4162 18.86L35.1762 19.18ZM35.4847 19.1871C35.1017 19.8253 34.6624 20.2771 34.1714 20.5561L34.369 20.9039C34.9339 20.5829 35.4186 20.0747 35.8277 19.3929L35.4847 19.1871ZM34.1714 20.5561C33.6782 20.8363 33.0953 20.98 32.4162 20.98V21.38C33.153 21.38 33.8062 21.2237 34.369 20.9039L34.1714 20.5561ZM34.3262 16.32C34.3262 15.2498 34.169 14.4054 33.8323 13.8096L33.4841 14.0064C33.7713 14.5146 33.9262 15.2782 33.9262 16.32H34.3262ZM33.8323 13.8096C33.4847 13.1946 32.944 12.88 32.2362 12.88V13.28C32.8003 13.28 33.2077 13.5174 33.4841 14.0064L33.8323 13.8096ZM32.2362 12.88C31.816 12.88 31.4429 13.0504 31.1228 13.3706L31.4056 13.6534C31.6615 13.3976 31.9364 13.28 32.2362 13.28V12.88ZM31.1258 13.3676C30.8088 13.6714 30.5662 14.086 30.3909 14.5994L30.7694 14.7286C30.9301 14.258 31.1436 13.9046 31.4026 13.6564L31.1258 13.3676ZM30.3895 14.6036C30.2263 15.1183 30.1462 15.6912 30.1462 16.32H30.5462C30.5462 15.7248 30.622 15.1937 30.7708 14.7244L30.3895 14.6036ZM30.3462 16.52H34.1262V16.12H30.3462V16.52ZM37.9292 13.35L37.7547 13.4477L37.7565 13.4508L37.9292 13.35ZM36.5612 12.9H36.3612V13.1H36.5612V12.9ZM36.5612 12.54V12.34H36.3612V12.54H36.5612ZM39.1892 12.72L39.0961 12.897L39.0998 12.8989L39.1892 12.72ZM39.7112 13.26L39.5289 13.3421L39.5819 13.46H39.7112V13.26ZM39.8012 13.26V13.46H39.8841L39.9427 13.4014L39.8012 13.26ZM40.7732 12.63L40.8514 12.8141L40.854 12.813L40.7732 12.63ZM43.4372 12.648L43.3431 12.8245L43.3478 12.8269L43.4372 12.648ZM44.3012 13.62L44.1196 13.7038L44.2564 14.0001L44.4583 13.7438L44.3012 13.62ZM45.4892 12.702L45.5713 12.8844L45.5733 12.8835L45.4892 12.702ZM48.8372 13.08L48.9822 12.9422L48.8372 13.08ZM49.5212 21V21.2H49.7212V21H49.5212ZM47.9012 21H47.7012V21.2H47.9012V21ZM47.5412 13.746L47.3716 13.852L47.3732 13.8544L47.5412 13.746ZM45.3992 13.548L45.5077 13.7161L45.5114 13.7136L45.3992 13.548ZM44.5712 14.34L44.4016 14.234L44.3517 14.3139L44.3815 14.4032L44.5712 14.34ZM44.6612 21V21.2H44.8612V21H44.6612ZM43.0412 21H42.8412V21.2H43.0412V21ZM42.6812 13.746L42.5116 13.852L42.5132 13.8544L42.6812 13.746ZM39.8012 14.124L39.6516 13.9913L39.6012 14.0481V14.124H39.8012ZM39.8012 21V21.2H40.0012V21H39.8012ZM38.1812 21H37.9812V21.2H38.1812V21ZM38.3812 14.7C38.3812 14.0778 38.2973 13.584 38.102 13.2492L37.7565 13.4508C37.8972 13.692 37.9812 14.0982 37.9812 14.7H38.3812ZM38.1037 13.2523C37.8853 12.8622 37.4604 12.7 36.9212 12.7V13.1C37.3901 13.1 37.6372 13.2378 37.7547 13.4477L38.1037 13.2523ZM36.9212 12.7H36.5612V13.1H36.9212V12.7ZM36.7612 12.9V12.54H36.3612V12.9H36.7612ZM36.5612 12.74H38.1812V12.34H36.5612V12.74ZM38.1812 12.74C38.6132 12.74 38.9106 12.7994 39.0961 12.897L39.2824 12.543C39.0119 12.4006 38.6373 12.34 38.1812 12.34V12.74ZM39.0998 12.8989C39.2995 12.9987 39.4402 13.145 39.5289 13.3421L39.8936 13.1779C39.7663 12.895 39.559 12.6813 39.2787 12.5411L39.0998 12.8989ZM39.7112 13.46H39.8012V13.06H39.7112V13.46ZM39.9427 13.4014C40.1731 13.1709 40.4742 12.9741 40.8513 12.8141L40.6951 12.4459C40.2803 12.6219 39.9333 12.8451 39.6598 13.1186L39.9427 13.4014ZM40.854 12.813C41.2334 12.6456 41.6614 12.56 42.1412 12.56V12.16C41.6131 12.16 41.1291 12.2544 40.6925 12.447L40.854 12.813ZM42.1412 12.56C42.62 12.56 43.0181 12.6511 43.3431 12.8245L43.5314 12.4715C43.1363 12.2609 42.6705 12.16 42.1412 12.16V12.56ZM43.3478 12.8269C43.6569 12.9815 43.9173 13.2653 44.1196 13.7038L44.4828 13.5362C44.2532 13.0387 43.9375 12.6745 43.5267 12.4691L43.3478 12.8269ZM44.4583 13.7438C44.7495 13.3742 45.1193 13.0878 45.5713 12.8844L45.4072 12.5196C44.8991 12.7482 44.477 13.0738 44.1441 13.4962L44.4583 13.7438ZM45.5733 12.8835C46.0403 12.667 46.5158 12.56 47.0012 12.56V12.16C46.4547 12.16 45.9221 12.281 45.4051 12.5205L45.5733 12.8835ZM47.0012 12.56C47.724 12.56 48.2801 12.7839 48.6922 13.2177L48.9822 12.9422C48.4824 12.4161 47.8145 12.16 47.0012 12.16V12.56ZM48.6922 13.2177C49.0935 13.6402 49.3212 14.4136 49.3212 15.6H49.7212C49.7212 14.3864 49.4929 13.4798 48.9822 12.9422L48.6922 13.2177ZM49.3212 15.6V21H49.7212V15.6H49.3212ZM49.5212 20.8H47.9012V21.2H49.5212V20.8ZM48.1012 21V15.6H47.7012V21H48.1012ZM48.1012 15.6C48.1012 14.7281 47.9821 14.0604 47.7093 13.6376L47.3732 13.8544C47.5804 14.1756 47.7012 14.7439 47.7012 15.6H48.1012ZM47.7108 13.64C47.4317 13.1934 47.0052 12.97 46.4612 12.97V13.37C46.8773 13.37 47.1708 13.5306 47.3716 13.852L47.7108 13.64ZM46.4612 12.97C46.0738 12.97 45.6812 13.1154 45.2871 13.3824L45.5114 13.7136C45.8612 13.4766 46.1767 13.37 46.4612 13.37V12.97ZM45.2908 13.3799C44.9013 13.6312 44.6012 13.9147 44.4016 14.234L44.7408 14.446C44.9013 14.1893 45.1532 13.9448 45.5077 13.7161L45.2908 13.3799ZM44.3815 14.4032C44.4029 14.4675 44.4244 14.5957 44.4392 14.8042C44.4538 15.0076 44.4612 15.2724 44.4612 15.6H44.8612C44.8612 15.2676 44.8537 14.9924 44.8382 14.7758C44.8231 14.5643 44.7995 14.3925 44.761 14.2768L44.3815 14.4032ZM44.4612 15.6V21H44.8612V15.6H44.4612ZM44.6612 20.8H43.0412V21.2H44.6612V20.8ZM43.2412 21V15.6H42.8412V21H43.2412ZM43.2412 15.6C43.2412 14.7281 43.1221 14.0604 42.8493 13.6376L42.5132 13.8544C42.7204 14.1756 42.8412 14.7439 42.8412 15.6H43.2412ZM42.8508 13.64C42.5717 13.1934 42.1452 12.97 41.6012 12.97V13.37C42.0173 13.37 42.3108 13.5306 42.5116 13.852L42.8508 13.64ZM41.6012 12.97C40.8905 12.97 40.2401 13.3277 39.6516 13.9913L39.9509 14.2567C40.4904 13.6483 41.04 13.37 41.6012 13.37V12.97ZM39.6012 14.124V21H40.0012V14.124H39.6012ZM39.8012 20.8H38.1812V21.2H39.8012V20.8ZM38.3812 21V14.7H37.9812V21H38.3812ZM52.89 20.946L52.8119 21.1302L52.8167 21.1321L52.89 20.946ZM51.864 20.136L51.7034 20.2552L51.7059 20.2584L51.864 20.136ZM52.71 16.716L52.6279 16.5337L52.6269 16.5341L52.71 16.716ZM56.58 16.14V16.34H56.78V16.14H56.58ZM56.094 13.728L56.254 13.608L56.094 13.728ZM53.394 13.422L53.2789 13.2584L53.394 13.422ZM52.71 14.61V14.81H52.8686L52.9048 14.6556L52.71 14.61ZM51.9 14.61H51.7V14.81H51.9V14.61ZM51.972 13.656L52.1678 13.6972L52.1682 13.6952L51.972 13.656ZM52.35 12.99L52.4915 13.1314L52.35 12.99ZM53.412 12.522L53.4504 12.7183L53.454 12.7176L53.412 12.522ZM57.354 13.152L57.2174 13.298L57.219 13.2996L57.354 13.152ZM58.2 21V21.2H58.4V21H58.2ZM57.3 21L57.1422 21.1228L57.2022 21.2H57.3V21ZM56.67 20.19L56.8279 20.0672L56.7679 19.99H56.67V20.19ZM56.58 20.19V19.99H56.4826L56.4225 20.0667L56.58 20.19ZM55.626 20.892L55.7092 21.0739L55.626 20.892ZM55.86 20.082L55.7424 19.9203L55.86 20.082ZM56.58 19.29L56.7483 19.3982L56.78 19.3487V19.29H56.58ZM56.58 16.86H56.78V16.66H56.58V16.86ZM53.934 17.364L54.0404 17.5334L54.0432 17.5316L53.934 17.364ZM53.646 19.938L53.5101 20.0849L53.5159 20.0899L53.646 19.938ZM54.06 20.98C53.7037 20.98 53.3385 20.9077 52.9634 20.7599L52.8167 21.1321C53.2336 21.2963 53.6484 21.38 54.06 21.38V20.98ZM52.9682 20.7619C52.6066 20.6085 52.2912 20.3611 52.0222 20.0136L51.7059 20.2584C52.0128 20.6549 52.3815 20.9475 52.8119 21.1301L52.9682 20.7619ZM52.0247 20.0168C51.7814 19.6889 51.65 19.2428 51.65 18.66H51.25C51.25 19.3012 51.3947 19.8391 51.7034 20.2552L52.0247 20.0168ZM51.65 18.66C51.65 18.2355 51.7474 17.8849 51.9329 17.5988C52.1184 17.3125 52.4009 17.0772 52.7932 16.8979L52.6269 16.5341C52.1791 16.7388 51.8317 17.0195 51.5972 17.3812C51.3627 17.7431 51.25 18.1725 51.25 18.66H51.65ZM52.7922 16.8983C53.6093 16.5301 54.6883 16.34 56.04 16.34V15.94C54.6558 15.94 53.5148 16.1339 52.6279 16.5337L52.7922 16.8983ZM56.04 16.34H56.58V15.94H56.04V16.34ZM56.78 16.14C56.78 15.5439 56.7391 15.0348 56.6546 14.6155C56.5705 14.1981 56.4408 13.8569 56.254 13.608L55.934 13.848C56.0713 14.0311 56.1846 14.3079 56.2625 14.6945C56.34 15.0792 56.38 15.5601 56.38 16.14H56.78ZM56.254 13.608C55.8869 13.1184 55.3554 12.88 54.69 12.88V13.28C55.2487 13.28 55.6532 13.4736 55.934 13.848L56.254 13.608ZM54.69 12.88C54.1235 12.88 53.6469 12.9995 53.2789 13.2584L53.5091 13.5856C53.7892 13.3885 54.1766 13.28 54.69 13.28V12.88ZM53.2789 13.2584C52.8998 13.5253 52.6534 13.9743 52.5153 14.5644L52.9048 14.6556C53.0307 14.1177 53.2403 13.7747 53.5091 13.5856L53.2789 13.2584ZM52.71 14.41H51.9V14.81H52.71V14.41ZM52.1 14.61C52.1 14.2072 52.124 13.9052 52.1678 13.6972L51.7763 13.6148C51.7241 13.8628 51.7 14.1968 51.7 14.61H52.1ZM52.1682 13.6952C52.2071 13.5004 52.3103 13.3126 52.4915 13.1314L52.2086 12.8486C51.9818 13.0754 51.833 13.3316 51.7759 13.6168L52.1682 13.6952ZM52.4915 13.1314C52.6665 12.9564 52.9747 12.8111 53.4503 12.7183L53.3737 12.3257C52.8654 12.4249 52.4656 12.5916 52.2086 12.8486L52.4915 13.1314ZM53.454 12.7176C53.9424 12.6129 54.4742 12.56 55.05 12.56V12.16C54.4499 12.16 53.8897 12.2151 53.3701 12.3264L53.454 12.7176ZM55.05 12.56C55.985 12.56 56.6993 12.813 57.2174 13.298L57.4907 13.006C56.8808 12.435 56.0591 12.16 55.05 12.16V12.56ZM57.219 13.2996C57.7166 13.7547 58 14.6734 58 16.14H58.4C58.4 14.6546 58.1195 13.5813 57.489 13.0044L57.219 13.2996ZM58 16.14V21H58.4V16.14H58ZM58.2 20.8H57.3V21.2H58.2V20.8ZM57.4579 20.8772L56.8279 20.0672L56.5122 20.3128L57.1422 21.1228L57.4579 20.8772ZM56.67 19.99H56.58V20.39H56.67V19.99ZM56.4225 20.0667C56.2315 20.3108 55.9427 20.5273 55.5429 20.7101L55.7092 21.0739C56.1494 20.8727 56.4966 20.6212 56.7375 20.3133L56.4225 20.0667ZM55.5429 20.7101C55.1565 20.8868 54.6649 20.98 54.06 20.98V21.38C54.7032 21.38 55.2556 21.2812 55.7092 21.0739L55.5429 20.7101ZM54.87 20.57C55.2991 20.57 55.6727 20.4655 55.9777 20.2437L55.7424 19.9203C55.5194 20.0825 55.233 20.17 54.87 20.17V20.57ZM55.9777 20.2437C56.2657 20.0343 56.5218 19.7505 56.7483 19.3982L56.4118 19.1818C56.2063 19.5015 55.9824 19.7457 55.7424 19.9203L55.9777 20.2437ZM56.78 19.29V16.86H56.38V19.29H56.78ZM56.58 16.66H56.04V17.06H56.58V16.66ZM56.04 16.66C55.1296 16.66 54.3848 16.8318 53.8249 17.1964L54.0432 17.5316C54.5153 17.2242 55.1745 17.06 56.04 17.06V16.66ZM53.8277 17.1946C53.2623 17.5497 52.96 18.0413 52.96 18.66H53.36C53.36 18.1987 53.5738 17.8263 54.0404 17.5334L53.8277 17.1946ZM52.96 18.66C52.96 19.2528 53.1355 19.7378 53.5102 20.0848L53.7819 19.7912C53.5086 19.5382 53.36 19.1712 53.36 18.66H52.96ZM53.5159 20.0899C53.8913 20.4116 54.3467 20.57 54.87 20.57V20.17C54.4334 20.17 54.0728 20.0404 53.7762 19.7861L53.5159 20.0899ZM66.4881 20.604L66.3763 20.7699L66.3802 20.7725L66.4881 20.604ZM65.1561 19.02L64.9722 19.0988L64.974 19.1028L65.1561 19.02ZM65.1561 14.538L64.9734 14.4565L64.9728 14.458L65.1561 14.538ZM66.4881 12.954L66.5974 13.1215L66.5982 13.1209L66.4881 12.954ZM71.6721 13.746L71.4746 13.7776L71.4748 13.7789L71.6721 13.746ZM71.7441 15.33V15.53H71.9441V15.33H71.7441ZM71.3841 15.33L71.1845 15.3429L71.1965 15.53H71.3841V15.33ZM70.6821 13.656L70.5471 13.8036L70.5495 13.8057L70.6821 13.656ZM67.0821 14.106L66.9143 13.9971L66.913 13.9992L67.0821 14.106ZM67.0821 19.434L66.9129 19.5408L66.9143 19.5429L67.0821 19.434ZM70.5561 20.118L70.6559 20.2914L70.6597 20.289L70.5561 20.118ZM71.6541 19.02L71.7741 18.86L71.6068 18.7346L71.4889 18.9072L71.6541 19.02ZM72.0141 19.29L72.1864 19.3915L72.2772 19.2374L72.1341 19.13L72.0141 19.29ZM70.6101 20.748L70.7042 20.9245L70.7072 20.9228L70.6101 20.748ZM68.6841 20.98C67.8501 20.98 67.1574 20.7949 66.5959 20.4355L66.3802 20.7725C67.0187 21.1811 67.79 21.38 68.6841 21.38V20.98ZM66.5998 20.4381C66.0432 20.0633 65.6232 19.5644 65.3381 18.9372L64.974 19.1028C65.2889 19.7956 65.7569 20.3527 66.3763 20.7699L66.5998 20.4381ZM65.3399 18.9412C65.0639 18.2972 64.9241 17.5745 64.9241 16.77H64.5241C64.5241 17.6215 64.6722 18.3988 64.9722 19.0988L65.3399 18.9412ZM64.9241 16.77C64.9241 15.9654 65.0639 15.2493 65.3394 14.618L64.9728 14.458C64.6722 15.1467 64.5241 15.9186 64.5241 16.77H64.9241ZM65.3387 14.6195C65.6238 13.9808 66.0432 13.4834 66.5974 13.1215L66.3787 12.7865C65.757 13.1926 65.2883 13.7512 64.9734 14.4565L65.3387 14.6195ZM66.5982 13.1209C67.1594 12.7505 67.8512 12.56 68.6841 12.56V12.16C67.7889 12.16 67.0167 12.3655 66.3779 12.7871L66.5982 13.1209ZM68.6841 12.56C69.335 12.56 69.8654 12.6119 70.2796 12.7119C70.6957 12.8123 70.9787 12.9574 71.1526 13.1314L71.4355 12.8486C71.1895 12.6026 70.8274 12.4327 70.3735 12.3231C69.9177 12.2131 69.3532 12.16 68.6841 12.16V12.56ZM71.1526 13.1314C71.3252 13.304 71.4329 13.5168 71.4746 13.7776L71.8696 13.7144C71.8153 13.3752 71.6709 13.084 71.4355 12.8486L71.1526 13.1314ZM71.4748 13.7789C71.5197 14.0484 71.5441 14.5608 71.5441 15.33H71.9441C71.9441 14.5632 71.9204 14.0196 71.8693 13.7131L71.4748 13.7789ZM71.7441 15.13H71.3841V15.53H71.7441V15.13ZM71.5836 15.3171C71.5334 14.5384 71.2858 13.9236 70.8147 13.5063L70.5495 13.8057C70.9183 14.1324 71.1387 14.6336 71.1845 15.3429L71.5836 15.3171ZM70.817 13.5084C70.3536 13.0847 69.7564 12.88 69.0441 12.88V13.28C69.6757 13.28 70.1705 13.4593 70.5471 13.8036L70.817 13.5084ZM69.0441 12.88C68.1172 12.88 67.3977 13.2524 66.9143 13.9971L67.2498 14.2149C67.6544 13.5916 68.243 13.28 69.0441 13.28V12.88ZM66.913 13.9992C66.4549 14.7245 66.2341 15.653 66.2341 16.77H66.6341C66.6341 15.703 66.8453 14.8555 67.2512 14.2128L66.913 13.9992ZM66.2341 16.77C66.2341 17.887 66.4549 18.8155 66.913 19.5408L67.2512 19.3272C66.8453 18.6845 66.6341 17.837 66.6341 16.77H66.2341ZM66.9143 19.5429C67.3977 20.2876 68.1172 20.66 69.0441 20.66V20.26C68.243 20.26 67.6544 19.9484 67.2498 19.3251L66.9143 19.5429ZM69.0441 20.66C69.6796 20.66 70.2209 20.5417 70.6559 20.2913L70.4563 19.9447C70.0992 20.1502 69.6325 20.26 69.0441 20.26V20.66ZM70.6597 20.289C71.0861 20.0306 71.4716 19.6419 71.8192 19.1328L71.4889 18.9072C71.1646 19.3821 70.818 19.7254 70.4524 19.947L70.6597 20.289ZM71.5341 19.18L71.8941 19.45L72.1341 19.13L71.7741 18.86L71.5341 19.18ZM71.8418 19.1885C71.4592 19.8377 71.0146 20.2945 70.5129 20.5732L70.7072 20.9228C71.2855 20.6015 71.777 20.0863 72.1864 19.3915L71.8418 19.1885ZM70.5159 20.5715C70.0105 20.8411 69.4022 20.98 68.6841 20.98V21.38C69.4539 21.38 70.1296 21.2309 70.7042 20.9245L70.5159 20.5715ZM75.2612 20.604L75.1511 20.7709L75.1534 20.7725L75.2612 20.604ZM73.8932 19.002L74.0746 18.9178L73.8932 19.002ZM73.8932 14.538L73.7118 14.4538L73.8932 14.538ZM75.2612 12.954L75.3691 13.1225L75.3714 13.1209L75.2612 12.954ZM79.5092 12.954L79.3991 13.1209L79.4014 13.1225L79.5092 12.954ZM80.8772 14.538L81.0586 14.4538L80.8772 14.538ZM80.8772 19.002L80.6958 18.9178L80.8772 19.002ZM79.5092 20.604L79.6171 20.7725L79.6194 20.7709L79.5092 20.604ZM78.5552 19.974L78.4189 19.8276L78.4164 19.83L78.5552 19.974ZM79.3472 18.642L79.1579 18.5775L79.1567 18.5812L79.3472 18.642ZM79.3472 14.898L79.1567 14.9588L79.1579 14.9625L79.3472 14.898ZM78.5552 13.566L78.4164 13.71L78.419 13.7124L78.5552 13.566ZM76.1972 13.566L76.0609 13.4196L76.0584 13.422L76.1972 13.566ZM75.4052 14.898L75.2159 14.8335L75.2147 14.8372L75.4052 14.898ZM75.4052 18.642L75.2147 18.7028L75.2159 18.7065L75.4052 18.642ZM76.1972 19.974L76.0584 20.118L76.061 20.1204L76.1972 19.974ZM77.3852 20.98C76.6017 20.98 75.9324 20.7961 75.369 20.4355L75.1534 20.7725C75.7901 21.1799 76.5367 21.38 77.3852 21.38V20.98ZM75.3714 20.4371C74.8033 20.0622 74.3715 19.5572 74.0746 18.9178L73.7118 19.0862C74.0389 19.7908 74.5191 20.3538 75.1511 20.7709L75.3714 20.4371ZM74.0746 18.9178C73.7761 18.2747 73.6252 17.5599 73.6252 16.77H73.2252C73.2252 17.6121 73.3864 18.3853 73.7118 19.0862L74.0746 18.9178ZM73.6252 16.77C73.6252 15.9801 73.7761 15.2653 74.0746 14.6222L73.7118 14.4538C73.3864 15.1547 73.2252 15.9279 73.2252 16.77H73.6252ZM74.0746 14.6222C74.3713 13.9833 74.8024 13.4851 75.369 13.1225L75.1534 12.7855C74.5201 13.1909 74.0392 13.7487 73.7118 14.4538L74.0746 14.6222ZM75.3714 13.1209C75.9344 12.7493 76.603 12.56 77.3852 12.56V12.16C76.5355 12.16 75.788 12.3667 75.1511 12.7871L75.3714 13.1209ZM77.3852 12.56C78.1675 12.56 78.836 12.7493 79.3991 13.1209L79.6194 12.7871C78.9824 12.3667 78.2349 12.16 77.3852 12.16V12.56ZM79.4014 13.1225C79.9681 13.4851 80.3992 13.9833 80.6958 14.6222L81.0586 14.4538C80.7313 13.7487 80.2504 13.1909 79.617 12.7855L79.4014 13.1225ZM80.6958 14.6222C80.9944 15.2653 81.1452 15.9801 81.1452 16.77H81.5452C81.5452 15.9279 81.3841 15.1547 81.0586 14.4538L80.6958 14.6222ZM81.1452 16.77C81.1452 17.5599 80.9944 18.2747 80.6958 18.9178L81.0586 19.0862C81.3841 18.3853 81.5452 17.6121 81.5452 16.77H81.1452ZM80.6958 18.9178C80.3989 19.5572 79.9671 20.0622 79.3991 20.4371L79.6194 20.7709C80.2513 20.3538 80.7315 19.7908 81.0586 19.0862L80.6958 18.9178ZM79.4014 20.4355C78.8381 20.7961 78.1687 20.98 77.3852 20.98V21.38C78.2337 21.38 78.9804 21.1799 79.617 20.7725L79.4014 20.4355ZM77.3852 20.66C77.8839 20.66 78.3229 20.4759 78.6941 20.118L78.4164 19.83C78.1156 20.1201 77.7746 20.26 77.3852 20.26V20.66ZM78.6915 20.1204C79.0701 19.7679 79.3499 19.2916 79.5378 18.7028L79.1567 18.5812C78.9846 19.1204 78.7364 19.5321 78.419 19.8276L78.6915 20.1204ZM79.5366 18.7065C79.7366 18.1189 79.8352 17.4727 79.8352 16.77H79.4352C79.4352 17.4353 79.3419 18.0371 79.1579 18.5775L79.5366 18.7065ZM79.8352 16.77C79.8352 16.0673 79.7366 15.4211 79.5366 14.8335L79.1579 14.9625C79.3419 15.5029 79.4352 16.1047 79.4352 16.77H79.8352ZM79.5378 14.8372C79.3499 14.2484 79.0701 13.7721 78.6915 13.4196L78.419 13.7124C78.7364 14.0079 78.9846 14.4196 79.1567 14.9588L79.5378 14.8372ZM78.6941 13.422C78.3229 13.0641 77.8839 12.88 77.3852 12.88V13.28C77.7746 13.28 78.1156 13.4199 78.4164 13.71L78.6941 13.422ZM77.3852 12.88C76.8869 12.88 76.4431 13.0638 76.061 13.4196L76.3335 13.7124C76.6474 13.4202 76.9956 13.28 77.3852 13.28V12.88ZM76.0584 13.422C75.694 13.7734 75.4154 14.2475 75.2159 14.8335L75.5946 14.9625C75.7791 14.4205 76.0284 14.0066 76.3361 13.71L76.0584 13.422ZM75.2147 14.8372C75.0275 15.4236 74.9352 16.0685 74.9352 16.77H75.3352C75.3352 16.1035 75.4229 15.5004 75.5958 14.9588L75.2147 14.8372ZM74.9352 16.77C74.9352 17.4715 75.0275 18.1164 75.2147 18.7028L75.5958 18.5812C75.4229 18.0396 75.3352 17.4365 75.3352 16.77H74.9352ZM75.2159 18.7065C75.4154 19.2925 75.694 19.7666 76.0584 20.118L76.3361 19.83C76.0284 19.5334 75.7791 19.1195 75.5946 18.5775L75.2159 18.7065ZM76.061 20.1204C76.4431 20.4762 76.8869 20.66 77.3852 20.66V20.26C76.9956 20.26 76.6474 20.1198 76.3335 19.8276L76.061 20.1204ZM83.8342 19.938L83.6677 20.0489L83.6689 20.0506L83.8342 19.938ZM83.8702 13.602L83.7071 13.4862L83.706 13.4878L83.8702 13.602ZM87.6322 12.504L87.6853 12.3112L87.6322 12.504ZM88.6762 12.9L88.5892 13.0801L88.8762 13.2186V12.9H88.6762ZM88.4242 9.93L88.2496 10.0277L88.2514 10.0308L88.4242 9.93ZM87.0562 9.48H86.8562V9.68H87.0562V9.48ZM87.0562 9.12V8.92H86.8562V9.12H87.0562ZM89.6662 9.3L89.5688 9.4752L89.5805 9.48075L89.6662 9.3ZM90.1522 9.912L90.3426 9.85104L90.1522 9.912ZM90.2962 21V21.2H90.4962V21H90.2962ZM89.3962 21L89.2383 21.1228L89.2983 21.2H89.3962V21ZM88.7662 20.19L88.924 20.0672L88.864 19.99H88.7662V20.19ZM88.6762 20.19V19.99H88.5857L88.526 20.0579L88.6762 20.19ZM87.7402 20.91L87.6507 20.7311L87.6483 20.7324L87.7402 20.91ZM88.6762 19.38L88.8374 19.4983L88.8762 19.4455V19.38H88.6762ZM88.6762 13.62H88.8762V13.4926L88.7607 13.4388L88.6762 13.62ZM87.7402 13.224L87.6718 13.412L87.7402 13.224ZM85.2562 14.088L85.0812 13.9911L85.0799 13.9936L85.2562 14.088ZM85.2382 19.452L85.0599 19.5427L85.0606 19.544L85.2382 19.452ZM86.2462 20.98C85.265 20.98 84.5244 20.596 83.9995 19.8254L83.6689 20.0506C84.2719 20.936 85.1393 21.38 86.2462 21.38V20.98ZM84.0006 19.8271C83.476 19.0402 83.2062 18.0259 83.2062 16.77H82.8062C82.8062 18.0821 83.0883 19.1798 83.6677 20.0489L84.0006 19.8271ZM83.2062 16.77C83.2062 15.5157 83.4873 14.5026 84.0343 13.7162L83.706 13.4878C83.101 14.3574 82.8062 15.4563 82.8062 16.77H83.2062ZM84.0332 13.7178C84.5796 12.9484 85.3675 12.56 86.4262 12.56V12.16C85.2528 12.16 84.3367 12.5996 83.7071 13.4862L84.0332 13.7178ZM86.4262 12.56C86.8687 12.56 87.2521 12.6066 87.579 12.6968L87.6853 12.3112C87.3162 12.2094 86.8956 12.16 86.4262 12.16V12.56ZM87.579 12.6968C87.9146 12.7894 88.2513 12.917 88.5892 13.0801L88.7631 12.7199C88.405 12.547 88.0457 12.4106 87.6853 12.3112L87.579 12.6968ZM88.8762 12.9V11.28H88.4762V12.9H88.8762ZM88.8762 11.28C88.8762 10.6578 88.7922 10.164 88.5969 9.82923L88.2514 10.0308C88.3921 10.272 88.4762 10.6782 88.4762 11.28H88.8762ZM88.5987 9.83228C88.3802 9.44223 87.9553 9.28 87.4162 9.28V9.68C87.885 9.68 88.1321 9.81777 88.2497 10.0277L88.5987 9.83228ZM87.4162 9.28H87.0562V9.68H87.4162V9.28ZM87.2562 9.48V9.12H86.8562V9.48H87.2562ZM87.0562 9.32H88.6762V8.92H87.0562V9.32ZM88.6762 9.32C89.1093 9.32 89.3979 9.37979 89.569 9.47483L89.7633 9.12517C89.5024 8.98021 89.131 8.92 88.6762 8.92V9.32ZM89.5805 9.48075C89.7466 9.55942 89.8781 9.71168 89.9617 9.97295L90.3426 9.85104C90.2342 9.51231 90.0417 9.25658 89.7518 9.11925L89.5805 9.48075ZM89.9617 9.97295C90.0479 10.2425 90.0962 10.673 90.0962 11.28H90.4962C90.4962 10.663 90.4484 10.1815 90.3426 9.85104L89.9617 9.97295ZM90.0962 11.28V21H90.4962V11.28H90.0962ZM90.2962 20.8H89.3962V21.2H90.2962V20.8ZM89.554 20.8772L88.924 20.0672L88.6083 20.3128L89.2383 21.1228L89.554 20.8772ZM88.7662 19.99H88.6762V20.39H88.7662V19.99ZM88.526 20.0579C88.2792 20.3384 87.9878 20.5626 87.6507 20.7311L87.8296 21.0889C88.2125 20.8974 88.5451 20.6416 88.8263 20.3221L88.526 20.0579ZM87.6483 20.7324C87.3415 20.8911 86.8806 20.98 86.2462 20.98V21.38C86.9077 21.38 87.4428 21.2889 87.832 21.0876L87.6483 20.7324ZM86.7862 20.66C87.2972 20.66 87.7178 20.5675 88.0184 20.3527L87.7859 20.0273C87.5825 20.1725 87.2591 20.26 86.7862 20.26V20.66ZM88.0184 20.3527C88.2935 20.1563 88.5659 19.8685 88.8374 19.4983L88.5149 19.2617C88.2584 19.6115 88.0148 19.8637 87.7859 20.0273L88.0184 20.3527ZM88.8762 19.38V13.62H88.4762V19.38H88.8762ZM88.7607 13.4388C88.3974 13.2692 88.0797 13.1347 87.8085 13.036L87.6718 13.412C87.9286 13.5053 88.2349 13.6348 88.5916 13.8012L88.7607 13.4388ZM87.8085 13.036C87.5251 12.933 87.244 12.88 86.9662 12.88V13.28C87.1923 13.28 87.4272 13.323 87.6718 13.412L87.8085 13.036ZM86.9662 12.88C86.5523 12.88 86.1815 12.9708 85.8611 13.1597C85.5407 13.3486 85.2817 13.629 85.0812 13.9911L85.4311 14.1849C85.6027 13.875 85.8146 13.6514 86.0642 13.5043C86.3138 13.3572 86.6121 13.28 86.9662 13.28V12.88ZM85.0799 13.9936C84.6987 14.705 84.5162 15.6352 84.5162 16.77H84.9162C84.9162 15.6728 85.0936 14.815 85.4324 14.1824L85.0799 13.9936ZM84.5162 16.77C84.5162 17.8926 84.6927 18.821 85.0599 19.5427L85.4164 19.3613C85.0876 18.715 84.9162 17.8554 84.9162 16.77H84.5162ZM85.0606 19.544C85.2468 19.9037 85.4841 20.1849 85.777 20.3756C86.071 20.567 86.4099 20.66 86.7862 20.66V20.26C86.4785 20.26 86.2173 20.185 85.9953 20.0404C85.7722 19.8951 85.5775 19.6723 85.4158 19.36L85.0606 19.544ZM94.1196 20.604L94.0047 20.7677L94.007 20.7693L94.1196 20.604ZM92.8416 19.02L92.6578 19.0988L92.6583 19.1L92.8416 19.02ZM92.8416 14.538L92.6578 14.4592L92.8416 14.538ZM94.0836 12.954L94.1995 13.117L94.2002 13.1165L94.0836 12.954ZM98.7096 13.386L98.5579 13.5164L98.5604 13.5192L98.7096 13.386ZM99.6096 16.32L99.8096 16.33V16.32H99.6096ZM99.5736 17.04V17.24H99.7639L99.7734 17.05L99.5736 17.04ZM94.1196 17.04V16.84H93.9196V17.04H94.1196ZM94.7676 19.506L94.9331 19.3936L94.7676 19.506ZM97.9716 20.1L97.8679 19.9289L97.8656 19.9304L97.9716 20.1ZM99.0696 19.02L99.1896 18.86L99.0243 18.736L98.9058 18.9053L99.0696 19.02ZM99.4296 19.29L99.6011 19.3929L99.6939 19.2382L99.5496 19.13L99.4296 19.29ZM98.0436 20.73L98.1424 20.9039L98.0436 20.73ZM97.8996 16.32V16.52H98.0996V16.32H97.8996ZM97.4316 13.908L97.2575 14.0064V14.0064L97.4316 13.908ZM95.0376 13.512L95.176 13.6564L95.179 13.6534L95.0376 13.512ZM94.3536 14.664L94.1643 14.5994L94.163 14.6036L94.3536 14.664ZM94.1196 16.32H93.9196V16.52H94.1196V16.32ZM96.1896 20.98C95.4057 20.98 94.7569 20.796 94.2322 20.4387L94.007 20.7693C94.6103 21.18 95.3415 21.38 96.1896 21.38V20.98ZM94.2345 20.4403C93.702 20.0664 93.2989 19.5679 93.0249 18.94L92.6583 19.1C92.9603 19.7921 93.4093 20.3496 94.0047 20.7677L94.2345 20.4403ZM93.0254 18.9412C92.7494 18.2972 92.6096 17.5745 92.6096 16.77H92.2096C92.2096 17.6215 92.3578 18.3988 92.6578 19.0988L93.0254 18.9412ZM92.6096 16.77C92.6096 15.9779 92.7493 15.2611 93.0254 14.6168L92.6578 14.4592C92.3579 15.1589 92.2096 15.9301 92.2096 16.77H92.6096ZM93.0254 14.6168C93.3005 13.975 93.6925 13.4775 94.1995 13.117L93.9677 12.791C93.3947 13.1985 92.9587 13.757 92.6578 14.4592L93.0254 14.6168ZM94.2002 13.1165C94.7155 12.7468 95.316 12.56 96.0096 12.56V12.16C95.2392 12.16 94.5557 12.3692 93.967 12.7915L94.2002 13.1165ZM96.0096 12.56C97.1845 12.56 98.0198 12.8904 98.5579 13.5164L98.8613 13.2556C98.2234 12.5136 97.2587 12.16 96.0096 12.16V12.56ZM98.5604 13.5192C99.1161 14.1416 99.4096 15.0644 99.4096 16.32H99.8096C99.8096 15.0076 99.5031 13.9744 98.8588 13.2528L98.5604 13.5192ZM99.4099 16.31L99.3739 17.03L99.7734 17.05L99.8094 16.33L99.4099 16.31ZM99.5736 16.84H94.1196V17.24H99.5736V16.84ZM93.9196 17.04C93.9196 18.0758 94.1416 18.9403 94.6022 19.6184L94.9331 19.3936C94.5296 18.7997 94.3196 18.0202 94.3196 17.04H93.9196ZM94.6022 19.6184C95.0706 20.3081 95.726 20.66 96.5496 20.66V20.26C95.8612 20.26 95.3286 19.9759 94.9331 19.3936L94.6022 19.6184ZM96.5496 20.66C97.1419 20.66 97.6549 20.5338 98.0776 20.2696L97.8656 19.9304C97.5204 20.1462 97.0853 20.26 96.5496 20.26V20.66ZM98.0753 20.271C98.5004 20.0134 98.8856 19.6316 99.2335 19.1347L98.9058 18.9053C98.5816 19.3684 98.2348 19.7066 97.868 19.929L98.0753 20.271ZM98.9496 19.18L99.3096 19.45L99.5496 19.13L99.1896 18.86L98.9496 19.18ZM99.2581 19.1871C98.8752 19.8253 98.4359 20.2771 97.9448 20.5561L98.1424 20.9039C98.7073 20.5829 99.192 20.0747 99.6011 19.3929L99.2581 19.1871ZM97.9448 20.5561C97.4516 20.8363 96.8688 20.98 96.1896 20.98V21.38C96.9265 21.38 97.5796 21.2237 98.1424 20.9039L97.9448 20.5561ZM98.0996 16.32C98.0996 15.2498 97.9425 14.4054 97.6057 13.8096L97.2575 14.0064C97.5447 14.5146 97.6996 15.2782 97.6996 16.32H98.0996ZM97.6057 13.8096C97.2581 13.1946 96.7174 12.88 96.0096 12.88V13.28C96.5738 13.28 96.9811 13.5174 97.2575 14.0064L97.6057 13.8096ZM96.0096 12.88C95.5894 12.88 95.2163 13.0504 94.8962 13.3706L95.179 13.6534C95.4349 13.3976 95.7098 13.28 96.0096 13.28V12.88ZM94.8992 13.3676C94.5822 13.6714 94.3396 14.086 94.1643 14.5994L94.5429 14.7286C94.7036 14.258 94.917 13.9046 95.176 13.6564L94.8992 13.3676ZM94.163 14.6036C93.9997 15.1183 93.9196 15.6912 93.9196 16.32H94.3196C94.3196 15.7248 94.3955 15.1937 94.5443 14.7244L94.163 14.6036ZM94.1196 16.52H97.8996V16.12H94.1196V16.52Z" fill="black" mask="url(#path-1-outside-1_19_340)"/>
<rect x="61.95" y="5.95" width="41.1" height="18.1" stroke="black" stroke-width="1.9"/>
</svg>
